<svg width="800" height="400" viewBox="0 0 800 400" fill="none" xmlns="http://www.w3.org/2000/svg">
<g clip-path="url(#clip0_3441_11461)">
<path d="M788.709 0L11.2909 0C5.05509 0 0 5.04293 0 11.2637L0 388.736C0 394.957 5.05509 400 11.2909 400H788.709C794.945 400 800 394.957 800 388.736V11.2637C800 5.04293 794.945 0 788.709 0Z" fill="url(#paint0_linear_3441_11461)"/>
<path d="M293.549 234.072V305.297H77.7578V234.052L293.549 234.072ZM292.01 303.777V235.611H79.2971V303.758L292.01 303.777Z" fill="white"/>
<path d="M507.797 234.072V305.297H292.008V234.052L507.797 234.072ZM506.257 303.777V235.611H293.547V303.758L506.257 303.777Z" fill="white"/>
<path d="M721.992 234.072V305.297H506.258V234.052L721.992 234.072ZM720.452 303.777V235.611H507.797V303.758L720.452 303.777Z" fill="white"/>
<path d="M775.311 164.43V235.609H720.492V164.43H775.311ZM773.772 234.07V165.97H722.031V234.07H773.772Z" fill="white"/>
<path d="M775.311 94.7194V165.898H720.492V94.7194H775.311ZM773.772 164.359V96.2586H722.031V164.359H773.772Z" fill="white"/>
<path d="M775.311 25.0072V96.1797H720.492V25.0006L775.311 25.0072ZM773.772 94.647V26.5465H722.031V94.6404L773.772 94.647Z" fill="white"/>
<path d="M721.756 164.43V235.609H666.938V164.43H721.756ZM720.217 234.07V165.97H668.477V234.07H720.217Z" fill="white"/>
<path d="M721.756 94.7194V165.898H666.938V94.7194H721.756ZM720.217 164.359V96.2586H668.477V164.359H720.217Z" fill="white"/>
<path d="M721.756 25.0072V96.1797H666.938V25.0006L721.756 25.0072ZM720.217 94.647V26.5465H668.477V94.6404L720.217 94.647Z" fill="white"/>
<path d="M668.194 164.43V235.609H613.375V164.43H668.194ZM666.655 234.07V165.97H614.914V234.07H666.655Z" fill="white"/>
<path d="M668.194 94.7194V165.898H613.375V94.7194H668.194ZM666.655 164.359V96.2586H614.914V164.359H666.655Z" fill="white"/>
<path d="M668.194 25.0072V96.1797H613.375V25.0006L668.194 25.0072ZM666.655 94.647V26.5465H614.914V94.6404L666.655 94.647Z" fill="white"/>
<path d="M614.639 164.43V235.609H559.82V164.43H614.639ZM613.1 234.07V165.97H561.36V234.07H613.1Z" fill="white"/>
<path d="M614.639 94.7194V165.898H559.82V94.7194H614.639ZM613.1 164.359V96.2586H561.36V164.359H613.1Z" fill="white"/>
<path d="M614.639 25.0072V96.1797H559.82V25.0006L614.639 25.0072ZM613.1 94.647V26.5465H561.36V94.6404L613.1 94.647Z" fill="white"/>
<path d="M561.087 164.43V235.609H506.266V164.43H561.087ZM559.548 234.07V165.97H507.805V234.07H559.548Z" fill="white"/>
<path d="M561.087 94.7194V165.898H506.266V94.7194H561.087ZM559.548 164.359V96.2586H507.805V164.359H559.548Z" fill="white"/>
<path d="M561.087 25.0072V96.1797H506.266V25.0006L561.087 25.0072ZM559.548 94.647V26.5465H507.805V94.6404L559.548 94.647Z" fill="white"/>
<path d="M507.53 164.43V235.609H452.711V164.43H507.53ZM505.991 234.07V165.97H454.25V234.07H505.991Z" fill="white"/>
<path d="M507.53 94.7194V165.898H452.711V94.7194H507.53ZM505.991 164.359V96.2586H454.25V164.359H505.991Z" fill="white"/>
<path d="M507.53 25.0072V96.1797H452.711V25.0006L507.53 25.0072ZM505.991 94.647V26.5465H454.25V94.6404L505.991 94.647Z" fill="white"/>
<path d="M453.975 164.43V235.609H399.156V164.43H453.975ZM452.436 234.07V165.97H400.695V234.07H452.436Z" fill="white"/>
<path d="M453.975 94.7194V165.898H399.156V94.7194H453.975ZM452.436 164.359V96.2586H400.695V164.359H452.436Z" fill="white"/>
<path d="M453.975 25.0072V96.1797H399.156V25.0006L453.975 25.0072ZM452.436 94.647V26.5465H400.695V94.6404L452.436 94.647Z" fill="white"/>
<path d="M400.413 164.43V235.609H345.594V164.43H400.413ZM398.874 234.07V165.97H347.133V234.07H398.874Z" fill="white"/>
<path d="M400.413 94.7194V165.898H345.594V94.7194H400.413ZM398.874 164.359V96.2586H347.133V164.359H398.874Z" fill="white"/>
<path d="M400.413 25.0072V96.1797H345.594V25.0006L400.413 25.0072ZM398.874 94.647V26.5465H347.133V94.6404L398.874 94.647Z" fill="white"/>
<path d="M346.858 164.43V235.609H292.039V164.43H346.858ZM345.319 234.07V165.97H293.578V234.07H345.319Z" fill="white"/>
<path d="M346.858 94.7194V165.898H292.039V94.7194H346.858ZM345.319 164.359V96.2586H293.578V164.359H345.319Z" fill="white"/>
<path d="M346.858 25.0072V96.1797H292.039V25.0006L346.858 25.0072ZM345.319 94.647V26.5465H293.578V94.6404L345.319 94.647Z" fill="white"/>
<path d="M293.306 164.43V235.609H238.484V164.43H293.306ZM291.766 234.07V165.97H240.024V234.07H291.766Z" fill="white"/>
<path d="M293.306 94.7194V165.898H238.484V94.7194H293.306ZM291.766 164.359V96.2586H240.024V164.359H291.766Z" fill="white"/>
<path d="M293.306 25.0072V96.1797H238.484V25.0006L293.306 25.0072ZM291.766 94.647V26.5465H240.024V94.6404L291.766 94.647Z" fill="white"/>
<path d="M239.749 164.43V235.609H184.93V164.43H239.749ZM238.21 234.07V165.97H186.469V234.07H238.21Z" fill="white"/>
<path d="M239.749 94.7194V165.898H184.93V94.7194H239.749ZM238.21 164.359V96.2586H186.469V164.359H238.21Z" fill="white"/>
<path d="M239.749 25.0072V96.1797H184.93V25.0006L239.749 25.0072ZM238.21 94.647V26.5465H186.469V94.6404L238.21 94.647Z" fill="white"/>
<path d="M186.184 164.43V235.609H131.367V164.43H186.184ZM184.645 234.07V165.97H132.906V234.07H184.645Z" fill="white"/>
<path d="M186.184 94.7194V165.898H131.367V94.7194H186.184ZM184.645 164.359V96.2586H132.906V164.359H184.645Z" fill="white"/>
<path d="M186.184 25.0072V96.1797H131.367V25.0006L186.184 25.0072ZM184.645 94.6404V26.5399H132.906V94.6404H184.645Z" fill="white"/>
<path d="M132.632 164.43V235.609H77.8125V164.43H132.632ZM131.092 234.07V165.97H79.3517V234.07H131.092Z" fill="white"/>
<path d="M132.632 94.7194V165.898H77.8125V94.7194H132.632ZM131.092 164.359V96.2586H79.3517V164.359H131.092Z" fill="white"/>
<path d="M132.632 25.0072V96.1797H77.8125V25.0006L132.632 25.0072ZM131.092 94.647V26.5465H79.3517V94.6404L131.092 94.647Z" fill="white"/>
<path d="M78.5871 131.075L56.5715 131.176L25.1401 182.567L57.2202 234.07H78.5255V235.609H56.7936C56.662 235.611 56.5322 235.578 56.4167 235.515C56.3012 235.452 56.2039 235.36 56.1339 235.249L23.5833 182.978C23.5084 182.856 23.4688 182.716 23.4688 182.574C23.4688 182.431 23.5084 182.291 23.5833 182.169L55.4831 130.006C55.5522 129.893 55.6492 129.8 55.7648 129.736C55.8803 129.672 56.0105 129.638 56.1427 129.639L78.5849 129.536L78.5871 131.075Z" fill="white"/>
<path d="M78.5871 26.5416L56.5715 26.6428L25.1401 78.0338L57.2202 129.537H78.5255V131.076H56.7936C56.6617 131.077 56.5318 131.045 56.4162 130.981C56.3007 130.918 56.2035 130.825 56.1339 130.713L23.5833 78.445C23.5084 78.3233 23.4688 78.1832 23.4688 78.0404C23.4688 77.8975 23.5084 77.7574 23.5833 77.6358L55.4831 25.4729C55.5519 25.3598 55.6488 25.2664 55.7644 25.2016C55.88 25.1369 56.0103 25.1031 56.1427 25.1035L78.5849 25.0024L78.5871 26.5416Z" fill="white"/>
<path d="M186.477 303.757V375.002H77.7578V303.757H186.477ZM184.938 373.463V305.296H79.2971V373.463H184.938Z" fill="white"/>
<path d="M293.602 303.757V375.002H184.883V303.757H293.602ZM292.063 373.463V305.296H186.422V373.463H292.063Z" fill="white"/>
<path d="M400.725 303.757V375.002H292.008V303.757H400.725ZM399.185 373.463V305.296H293.547V373.463H399.185Z" fill="white"/>
<path d="M507.85 303.757V375.002H399.133V303.757H507.85ZM506.31 373.463V305.296H400.672V373.463H506.31Z" fill="white"/>
<path d="M614.977 303.757V375.002H506.258V303.757H614.977ZM613.438 373.463V305.296H507.797V373.463H613.438Z" fill="white"/>
<path d="M722.05 303.757V375.002H613.359V303.757H722.05ZM720.511 373.463V305.296H614.899V373.463H720.511Z" fill="white"/>
<g clip-path="url(#clip1_3441_11461)">
<path d="M105.331 174.799C115.464 174.799 123.679 186.215 123.679 200.295C123.679 214.375 115.453 225.789 105.331 225.789C95.2082 225.789 86.9844 214.375 86.9844 200.295C86.9844 186.215 95.1883 174.799 105.331 174.799Z" fill="#FF4349"/>
<path d="M99.3695 201.196V201.254L101.054 204.593L98.4423 205.182L96.25 200.749V197.857H114.508V201.196H99.3695Z" fill="white"/>
<path d="M105.331 104.901C115.464 104.901 123.677 116.313 123.677 130.395C123.677 144.477 115.453 155.889 105.331 155.889C95.2082 155.889 86.9844 144.475 86.9844 130.395C86.9844 116.315 95.1883 104.901 105.331 104.901Z" fill="#1D1D1D"/>
<path d="M114.512 136.711H112.406L110.419 134.55C106.429 130.258 104.237 128.237 101.824 128.209C100.195 128.209 98.7617 129.091 98.7617 131.464C98.7617 133.063 99.5764 134.439 100.278 135.363L97.819 136.373C96.5787 134.768 95.916 132.791 95.938 130.763C95.938 126.722 98.4924 124.759 101.471 124.759C104.672 124.759 107.257 127.06 110.204 130.229L111.582 131.83H111.637V124.331H114.507L114.512 136.711Z" fill="white"/>
<path d="M159.065 174.799C169.199 174.799 177.411 186.215 177.411 200.295C177.411 214.375 169.199 225.789 159.065 225.789C148.932 225.789 140.719 214.375 140.719 200.295C140.719 186.215 148.934 174.799 159.065 174.799Z" fill="#1D1D1D"/>
<path d="M168.266 199.007H163.63V207.256H161.384L150.008 199.821V195.752H161.018V193.394H163.632V195.752H168.268L168.266 199.007ZM161.018 199.007H156.046C155.008 199.007 153.94 198.979 152.873 198.895V199.007C154.026 199.567 154.953 200.046 155.964 200.606L160.965 203.945L161.02 203.974L161.018 199.007Z" fill="white"/>
<path d="M159.065 35.0009C169.201 35.0009 177.413 46.4145 177.413 60.4924C177.413 74.5703 169.201 85.9883 159.065 85.9883C148.929 85.9883 140.719 74.5747 140.719 60.4924C140.719 46.4101 148.934 35.0009 159.065 35.0009Z" fill="#1D1D1D"/>
<path d="M152.454 55.6972C152.444 56.2865 152.472 56.8759 152.538 57.4616C152.979 61.2772 155.346 63.1298 157.874 63.5798V63.4938C156.834 62.5961 156.108 61.2221 156.108 59.3981C156.108 56.2552 158.353 53.8137 162.068 53.8137C165.55 53.8137 168.583 56.3677 168.583 60.2406C168.583 64.6737 165.214 67.1152 160.72 67.1152C157.209 67.1152 154.344 65.8515 152.518 63.9437C150.946 62.2609 150.047 60.0708 149.822 57.4616C149.752 56.8844 149.733 56.3021 149.765 55.7215L152.454 55.6972ZM165.992 60.2428C165.992 58.4784 164.446 57.3227 162.256 57.3227C160.121 57.3227 158.633 58.474 158.633 60.4942C158.64 61.1155 158.82 61.7227 159.152 62.2481C159.484 62.7734 159.956 63.1962 160.514 63.4695C160.859 63.6303 161.238 63.7059 161.618 63.69C164.033 63.6327 166 62.4836 166 60.2649L165.992 60.2428Z" fill="white"/>
<path d="M212.815 104.901C222.948 104.901 231.161 116.313 231.161 130.395C231.161 144.477 222.948 155.889 212.815 155.889C202.682 155.889 194.469 144.475 194.469 130.395C194.469 116.315 202.688 104.901 212.815 104.901Z" fill="#1D1D1D"/>
<path d="M212.49 133.541C211.563 135.449 210.046 136.318 208.446 136.318C205.468 136.318 203.445 133.671 203.445 130.228C203.445 126.3 205.805 124.494 208.051 124.494C209.596 124.494 211.197 125.308 212.181 127.3H212.265C213.022 125.315 214.597 123.821 216.871 123.821C220.129 123.821 222.321 126.572 222.321 130.471C222.321 134.737 219.878 136.953 217.321 136.953C215.045 136.953 213.502 135.63 212.574 133.53L212.49 133.541ZM208.296 133.036C209.786 133.036 210.684 131.801 211.166 130.061C210.802 128.826 209.793 127.789 208.415 127.789C207.15 127.789 205.832 128.546 205.832 130.398C205.834 132.138 206.984 133.036 208.305 133.036H208.296ZM217.142 127.339C215.29 127.339 214.272 128.715 213.716 130.734C214.221 132.447 215.402 133.429 216.919 133.429C218.465 133.484 219.869 132.306 219.869 130.37C219.878 128.546 218.725 127.339 217.151 127.339H217.142Z" fill="white"/>
<path d="M266.565 174.799C276.699 174.799 284.913 186.215 284.913 200.295C284.913 214.375 276.699 225.789 266.565 225.789C256.432 225.789 248.219 214.375 248.219 200.295C248.219 186.215 256.434 174.799 266.565 174.799Z" fill="#1D1D1D"/>
<path d="M260.625 209.069V209.124L262.312 212.466L259.698 213.055L257.508 208.619V205.73H275.768V209.069H260.625Z" fill="white"/>
<path d="M266.521 185.86C272.391 185.86 276.069 188.161 276.069 192.51C276.069 196.718 272.25 198.964 266.689 198.992C261.015 198.992 257.195 196.579 257.195 192.314C257.195 187.896 261.129 185.86 266.521 185.86ZM266.689 195.514C271.126 195.541 273.431 194.305 273.431 192.398C273.431 190.377 270.958 189.31 266.576 189.31C262.337 189.31 259.836 190.32 259.836 192.398C259.836 194.25 262.112 195.541 266.689 195.514Z" fill="white"/>
<path d="M266.565 104.901C276.698 104.901 284.911 116.313 284.911 130.395C284.911 144.477 276.698 155.889 266.565 155.889C256.432 155.889 248.219 144.475 248.219 130.395C248.219 116.315 256.434 104.901 266.565 104.901Z" fill="#1D1D1D"/>
<path d="M260.625 139.153V139.211L262.312 142.55L259.698 143.139L257.508 138.706V135.816H275.768V139.153H260.625Z" fill="white"/>
<path d="M260.625 123.421V123.478L262.312 126.817L259.698 127.406L257.508 122.973V120.084H275.768V123.421H260.625Z" fill="white"/>
<path d="M320.317 35.0009C330.451 35.0009 338.663 46.4145 338.663 60.4924C338.663 74.5703 330.451 85.9883 320.317 85.9883C310.184 85.9883 301.969 74.5747 301.969 60.4924C301.969 46.4101 310.182 35.0009 320.317 35.0009Z" fill="#1D1D1D"/>
<path d="M314.375 69.2629V69.318L316.062 72.6572L313.45 73.2461L311.258 68.8129V65.9303H329.516V69.2695L314.375 69.2629Z" fill="white"/>
<path d="M314.121 47.3469V54.3627L317.773 54.8942C317.713 54.4556 317.685 54.0134 317.689 53.5709C317.689 51.9719 318.053 50.3729 318.868 49.1378C319.738 47.7637 321.283 46.7536 323.504 46.7536C326.988 46.7536 329.825 49.6428 329.825 54.1333C329.825 56.2374 329.291 58.004 328.756 58.959L326.145 58.2576C326.761 57.0093 327.087 55.6378 327.098 54.2458C327.098 52.2255 325.948 50.289 323.758 50.289C321.678 50.289 320.303 51.8329 320.303 55.4787C320.293 56.3147 320.349 57.1503 320.471 57.9775L311.258 56.7711V47.3425L314.121 47.3469Z" fill="white"/>
<path d="M320.315 174.799C330.448 174.799 338.663 186.215 338.663 200.295C338.663 214.375 330.448 225.789 320.315 225.789C310.182 225.789 301.969 214.375 301.969 200.295C301.969 186.215 310.184 174.799 320.315 174.799Z" fill="#1D1D1D"/>
<path d="M314.375 209.069V209.124L316.062 212.466L313.45 213.055L311.258 208.619V205.73H329.516V209.069H314.375Z" fill="white"/>
<path d="M325.942 198.041C326.647 196.767 327.033 195.342 327.066 193.888C327.066 191.252 325.578 190.185 324.145 190.213C321.982 190.213 321.055 192.234 321.055 194.338V195.937H318.527V194.393C318.527 192.794 317.798 190.773 315.972 190.773C314.736 190.773 313.696 191.7 313.696 193.691C313.735 195.017 314.134 196.306 314.849 197.423L312.349 198.211C311.619 197.172 310.945 195.151 310.945 192.964C310.945 189.203 313.023 187.267 315.409 187.267C317.319 187.267 318.893 188.389 319.679 190.635H319.734C320.129 188.429 321.814 186.62 324.287 186.62C327.377 186.62 329.819 189.203 329.819 193.72C329.819 195.937 329.201 197.844 328.554 198.828L325.942 198.041Z" fill="white"/>
<path d="M374.063 104.901C384.196 104.901 392.411 116.313 392.411 130.395C392.411 144.477 384.196 155.889 374.063 155.889C363.929 155.889 355.719 144.475 355.719 130.395C355.719 116.315 363.932 104.901 374.063 104.901Z" fill="#1D1D1D"/>
<path d="M368.125 139.153V139.211L369.812 142.55L367.198 143.139L365.008 138.706V135.816H383.266V139.153H368.125Z" fill="white"/>
<path d="M365.008 116.295H367.215L383.255 124.014V127.662L367.917 119.974H367.862V128.566H364.992L365.008 116.295Z" fill="white"/>
<path d="M427.815 104.901C437.948 104.901 446.163 116.313 446.163 130.395C446.163 144.477 437.948 155.889 427.815 155.889C417.681 155.889 409.469 144.475 409.469 130.395C409.469 116.315 417.681 104.901 427.815 104.901Z" fill="#1D1D1D"/>
<path d="M437.012 144.582H434.906L432.919 142.421C428.929 138.129 426.737 136.108 424.324 136.08C422.695 136.08 421.262 136.949 421.262 139.335C421.262 140.934 422.077 142.308 422.779 143.234L420.335 144.245C419.095 142.638 418.432 140.662 418.454 138.634C418.454 134.593 421.01 132.628 423.986 132.628C427.19 132.628 429.773 134.931 432.722 138.1L434.098 139.699H434.155V132.2H437.025L437.012 144.582Z" fill="white"/>
<path d="M427.771 115.958C433.639 115.958 437.319 118.261 437.319 122.61C437.319 126.818 433.5 129.063 427.939 129.09C422.265 129.09 418.445 126.677 418.445 122.411C418.445 118.007 422.377 115.958 427.771 115.958ZM427.939 125.612C432.376 125.638 434.679 124.405 434.679 122.495C434.679 120.477 432.208 119.408 427.835 119.408C423.596 119.408 421.095 120.418 421.095 122.495C421.086 124.348 423.36 125.638 427.939 125.612Z" fill="white"/>
<path d="M481.565 35.0009C491.696 35.0009 499.911 46.4145 499.911 60.4924C499.911 74.5703 491.696 85.9883 481.565 85.9883C471.434 85.9883 463.219 74.5747 463.219 60.4924C463.219 46.4101 471.434 35.0009 481.565 35.0009Z" fill="#1D1D1D"/>
<path d="M490.762 74.6777H488.656L486.669 72.5185C482.679 68.2244 480.487 66.2041 478.074 66.1776C476.445 66.1776 475.012 67.0466 475.012 69.4308C475.012 71.0298 475.827 72.406 476.529 73.3324L474.085 74.3403C472.844 72.7343 472.182 70.7577 472.204 68.7294C472.204 64.6889 474.76 62.726 477.736 62.726C480.94 62.726 483.523 65.0264 486.472 68.1957L487.848 69.7969H487.903V62.2981H490.773L490.762 74.6777Z" fill="white"/>
<path d="M490.758 51.3314H486.122V59.5801H483.874L472.5 52.143V48.065H483.512V45.7073H486.124V48.065H490.76L490.758 51.3314ZM483.512 51.3314H478.54C477.5 51.3314 476.434 51.3028 475.368 51.2189V51.3314C476.518 51.8916 477.445 52.368 478.459 52.9304L483.459 56.2696L483.514 56.2983L483.512 51.3314Z" fill="white"/>
<path d="M535.315 104.901C545.448 104.901 553.663 116.313 553.663 130.395C553.663 144.477 545.448 155.889 535.315 155.889C525.182 155.889 516.969 144.475 516.969 130.395C516.969 116.315 525.184 104.901 535.315 104.901Z" fill="#1D1D1D"/>
<path d="M544.506 144.582H542.398L540.411 142.421C536.422 138.129 534.229 136.108 531.816 136.08C530.187 136.08 528.754 136.949 528.754 139.335C528.754 140.934 529.569 142.308 530.271 143.234L527.827 144.245C526.587 142.638 525.924 140.662 525.946 138.634C525.946 134.593 528.502 132.628 531.478 132.628C534.682 132.628 537.265 134.931 540.215 138.1L541.59 139.699H541.647V132.2H544.517L544.506 144.582Z" fill="white"/>
<path d="M528.695 117.727C528.686 118.316 528.714 118.905 528.779 119.491C529.221 123.307 531.587 125.157 534.115 125.607V125.523C533.075 124.623 532.349 123.249 532.349 121.425C532.349 118.283 534.594 115.843 538.31 115.843C541.792 115.843 544.825 118.395 544.825 122.268C544.825 126.701 541.456 129.143 536.961 129.143C533.451 129.143 530.585 127.879 528.759 125.971C527.187 124.288 526.289 122.1 526.064 119.491C525.993 118.914 525.975 118.332 526.008 117.751L528.695 117.727ZM542.24 122.272C542.24 120.508 540.694 119.354 538.504 119.354C536.369 119.354 534.881 120.506 534.881 122.524C534.888 123.145 535.068 123.752 535.4 124.278C535.732 124.803 536.204 125.226 536.762 125.499C537.107 125.66 537.486 125.735 537.866 125.72C540.281 125.662 542.249 124.513 542.249 122.297L542.24 122.272Z" fill="white"/>
<path d="M589.063 104.901C599.194 104.901 607.409 116.313 607.409 130.395C607.409 144.477 599.194 155.889 589.063 155.889C578.932 155.889 570.719 144.475 570.719 130.395C570.719 116.315 578.932 104.901 589.063 104.901Z" fill="#1D1D1D"/>
<path d="M598.262 144.582H596.156L594.169 142.421C590.179 138.129 587.987 136.108 585.574 136.08C583.945 136.08 582.512 136.949 582.512 139.335C582.512 140.934 583.327 142.308 584.029 143.234L581.585 144.245C580.345 142.638 579.682 140.662 579.704 138.634C579.704 134.593 582.26 132.628 585.236 132.628C588.44 132.628 591.023 134.931 593.972 138.1L595.348 139.699H595.405V132.2H598.275L598.262 144.582Z" fill="white"/>
<path d="M595.79 127.437C595.836 126.801 595.817 126.161 595.732 125.529C595.638 124.183 595.15 122.894 594.328 121.824C593.374 120.646 591.997 119.839 590.284 119.497L590.255 119.552C591.297 120.478 591.886 121.769 591.886 123.509C591.886 126.707 589.581 129.064 586.21 129.064C582.729 129.064 579.695 126.371 579.695 122.47C579.695 118.233 583.038 115.959 587.475 115.959C591.379 115.959 594.16 117.249 595.957 119.131C597.445 120.73 598.289 122.92 598.456 125.359C598.53 126.049 598.549 126.744 598.514 127.437H595.79ZM582.252 122.666C582.252 124.378 583.797 125.639 586.016 125.639C587.897 125.613 589.356 124.537 589.356 122.638C589.356 121.235 588.712 120.225 587.842 119.691C587.534 119.548 587.196 119.481 586.857 119.497C584.387 119.468 582.252 120.395 582.252 122.638V122.666Z" fill="white"/>
<path d="M589.065 174.799C599.201 174.799 607.413 186.215 607.413 200.295C607.413 214.375 599.201 225.789 589.065 225.789C578.929 225.789 570.719 214.375 570.719 200.295C570.719 186.215 578.934 174.799 589.065 174.799Z" fill="#1D1D1D"/>
<path d="M598.261 214.482H596.154L594.168 212.321C590.178 208.029 587.986 206.009 585.573 205.982C583.944 205.982 582.511 206.851 582.511 209.235C582.511 210.834 583.325 212.211 584.027 213.137L581.577 214.143C580.336 212.537 579.674 210.56 579.696 208.532C579.696 204.491 582.25 202.528 585.228 202.528C588.43 202.528 591.015 204.829 593.964 207.998L595.34 209.599H595.395V202.101H598.265L598.261 214.482Z" fill="white"/>
<path d="M588.74 195.569C587.813 197.477 586.294 198.346 584.696 198.346C581.718 198.346 579.695 195.699 579.695 192.257C579.695 188.331 582.053 186.533 584.301 186.533C585.846 186.533 587.447 187.347 588.429 189.341H588.515C589.273 187.356 590.844 185.86 593.121 185.86C596.379 185.86 598.569 188.611 598.569 192.51C598.569 196.776 596.125 198.992 593.571 198.992C591.295 198.992 589.752 197.669 588.824 195.569H588.74ZM584.546 195.064C586.034 195.064 586.932 193.829 587.416 192.089C587.051 190.856 586.04 189.817 584.665 189.817C583.4 189.817 582.08 190.574 582.08 192.426C582.082 194.166 583.234 195.064 584.555 195.064H584.546ZM593.392 189.367C591.54 189.367 590.522 190.744 589.966 192.764C590.471 194.475 591.652 195.457 593.167 195.457C594.712 195.514 596.117 194.334 596.117 192.398C596.125 190.574 594.975 189.367 593.401 189.367H593.392Z" fill="white"/>
<path d="M642.817 174.799C652.948 174.799 661.163 186.215 661.163 200.295C661.163 214.375 652.948 225.789 642.817 225.789C632.686 225.789 624.469 214.375 624.469 200.295C624.469 186.215 632.684 174.799 642.817 174.799Z" fill="#1D1D1D"/>
<path d="M648.445 213.781C649.149 212.508 649.535 211.083 649.568 209.628C649.568 206.981 648.08 205.925 646.647 205.954C644.484 205.954 643.557 207.974 643.557 210.078V211.677H641.029V210.133C641.029 208.534 640.3 206.514 638.474 206.514C637.238 206.514 636.198 207.44 636.198 209.432C636.238 210.757 636.636 212.046 637.351 213.163L634.852 213.951C634.121 212.912 633.445 210.892 633.445 208.704C633.445 204.943 635.525 203.007 637.912 203.007C639.821 203.007 641.395 204.13 642.181 206.373H642.236C642.632 204.167 644.316 202.361 646.789 202.361C649.88 202.361 652.321 204.943 652.321 209.46C652.321 211.677 651.703 213.585 651.056 214.568L648.445 213.781Z" fill="white"/>
<path d="M636.869 193.323V193.381L638.554 196.718L635.942 197.309L633.75 192.873V189.984H652.008V193.323H636.869Z" fill="white"/>
<path d="M642.817 35.0009C652.948 35.0009 661.163 46.4145 661.163 60.4924C661.163 74.5703 652.948 85.9883 642.817 85.9883C632.686 85.9883 624.469 74.5747 624.469 60.4924C624.469 46.4101 632.684 35.0009 642.817 35.0009Z" fill="#1D1D1D"/>
<path d="M648.445 73.9765C649.149 72.7031 649.535 71.2782 649.568 69.8235C649.568 67.1769 648.08 66.1205 646.647 66.1491C644.484 66.1491 643.557 68.1694 643.557 70.2735V71.8725H641.029V70.3286C641.029 68.7296 640.3 66.7094 638.474 66.7094C637.238 66.7094 636.198 67.6357 636.198 69.6273C636.238 70.9523 636.636 72.2419 637.351 73.359L634.852 74.1464C634.121 73.1076 633.445 71.0873 633.445 68.8994C633.445 65.15 635.525 63.2026 637.912 63.2026C639.821 63.2026 641.395 64.3252 642.181 66.5682H642.236C642.632 64.3627 644.316 62.5563 646.789 62.5563C649.88 62.5563 652.321 65.139 652.321 69.6559C652.321 71.8615 651.703 73.7803 651.056 74.7617L648.445 73.9765Z" fill="white"/>
<path d="M648.445 58.2324C649.149 56.9596 649.534 55.5355 649.568 54.0816C649.568 51.435 648.08 50.3763 646.647 50.405C644.484 50.405 643.557 52.4253 643.557 54.5293V56.1283H641.029V54.5845C641.029 52.9855 640.3 50.9652 638.474 50.9652C637.238 50.9652 636.198 51.8915 636.198 53.8831C636.238 55.2082 636.636 56.4979 637.351 57.6149L634.852 58.4022C634.121 57.3634 633.445 55.3432 633.445 53.1553C633.445 49.4059 635.525 47.4584 637.912 47.4584C639.821 47.4584 641.395 48.581 642.181 50.824H642.236C642.632 48.6185 644.316 46.8122 646.789 46.8122C649.88 46.8122 652.321 49.3949 652.321 53.9118C652.321 56.1173 651.703 58.0361 651.056 59.0176L648.445 58.2324Z" fill="white"/>
<path d="M696.559 104.901C706.691 104.901 714.903 116.313 714.903 130.395C714.903 144.477 706.691 155.889 696.559 155.889C686.428 155.889 678.211 144.475 678.211 130.395C678.211 116.315 686.43 104.901 696.559 104.901Z" fill="#1D1D1D"/>
<path d="M702.195 143.881C702.897 142.607 703.282 141.182 703.316 139.728C703.316 137.081 701.828 136.023 700.398 136.051C698.234 136.051 697.307 138.071 697.307 140.176V141.777H694.779V140.233C694.779 138.634 694.048 136.614 692.222 136.614C690.988 136.614 689.948 137.538 689.948 139.532C689.987 140.857 690.386 142.146 691.101 143.263L688.599 144.048C687.869 143.012 687.195 140.989 687.195 138.802C687.195 135.041 689.273 133.105 691.662 133.105C693.571 133.105 695.145 134.227 695.931 136.472H695.986C696.379 134.267 698.064 132.461 700.537 132.461C703.628 132.461 706.069 135.041 706.069 139.56C706.069 141.766 705.451 143.685 704.806 144.666L702.195 143.881Z" fill="white"/>
<path d="M690.379 117.249V124.265L694.028 124.799C693.97 124.36 693.943 123.918 693.947 123.475C693.947 121.876 694.311 120.277 695.126 119.042C695.996 117.668 697.541 116.656 699.762 116.656C703.244 116.656 706.081 119.547 706.081 124.035C706.081 126.142 705.546 127.908 705.014 128.863L702.402 128.162C703.019 126.913 703.345 125.541 703.356 124.148C703.356 122.128 702.206 120.193 700.014 120.193C697.936 120.193 696.559 121.737 696.559 125.383C696.549 126.218 696.606 127.053 696.729 127.88L687.516 126.673V117.245L690.379 117.249Z" fill="white"/>
<path d="M481.567 174.799C491.696 174.799 499.911 186.215 499.911 200.295C499.911 214.375 491.696 225.789 481.567 225.789C471.438 225.789 463.219 214.375 463.219 200.295C463.219 186.215 471.434 174.799 481.567 174.799Z" fill="#1D1D1D"/>
<path d="M490.761 214.482H488.654L486.668 212.321C482.678 208.029 480.486 206.009 478.073 205.982C476.444 205.982 475.011 206.851 475.011 209.235C475.011 210.834 475.825 212.211 476.527 213.137L474.077 214.143C472.836 212.537 472.174 210.56 472.196 208.532C472.196 204.491 474.752 202.528 477.728 202.528C480.932 202.528 483.515 204.829 486.464 207.998L487.842 209.599H487.897V202.101H490.767L490.761 214.482Z" fill="white"/>
<path d="M490.762 198.738H488.656L486.669 196.579C482.679 192.285 480.487 190.265 478.074 190.238C476.445 190.238 475.012 191.107 475.012 193.491C475.012 195.09 475.826 196.467 476.529 197.393L474.085 198.403C472.845 196.796 472.183 194.819 472.204 192.79C472.204 188.749 474.76 186.786 477.736 186.786C480.94 186.786 483.523 189.087 486.472 192.256L487.843 193.851H487.898V186.352H490.768L490.762 198.738Z" fill="white"/>
<path d="M159.065 104.901C169.201 104.901 177.413 116.313 177.413 130.395C177.413 144.477 169.201 155.889 159.065 155.889C148.929 155.889 140.719 144.475 140.719 130.395C140.719 116.315 148.934 104.901 159.065 104.901Z" fill="#FF4349"/>
<path d="M152.869 125.122V132.138L156.523 132.67C156.462 132.231 156.433 131.789 156.437 131.346C156.437 129.747 156.803 128.148 157.618 126.913C158.488 125.539 160.033 124.529 162.254 124.529C165.736 124.529 168.573 127.418 168.573 131.909C168.573 134.013 168.041 135.779 167.506 136.734L164.895 136.033C165.51 134.784 165.836 133.412 165.848 132.019C165.848 130.001 164.698 128.064 162.506 128.064C160.428 128.064 159.053 129.608 159.053 133.254C159.043 134.09 159.099 134.926 159.221 135.753L150.008 134.544V125.118L152.869 125.122Z" fill="white"/>
<path d="M105.331 35.0009C115.464 35.0009 123.677 46.4145 123.677 60.4924C123.677 74.5703 115.464 85.9883 105.331 85.9883C95.1971 85.9883 86.9844 74.5747 86.9844 60.4924C86.9844 46.4101 95.1883 35.0009 105.331 35.0009Z" fill="#FF4349"/>
<path d="M110.95 66.1074C111.654 64.8338 112.04 63.409 112.074 61.9544C112.074 59.3078 110.586 58.2491 109.153 58.2778C106.992 58.2778 106.062 60.2981 106.062 62.4021V64.0033H103.537V62.4595C103.537 60.8605 102.806 58.838 100.98 58.838C99.7438 58.838 98.704 59.7643 98.704 61.7581C98.744 63.0831 99.1422 64.3726 99.8564 65.4899L97.3572 66.275C96.6265 65.2362 95.9531 63.216 95.9531 61.0281C95.9531 57.2787 98.0306 55.3312 100.417 55.3312C102.329 55.3312 103.901 56.4538 104.687 58.699H104.744C105.137 56.4935 106.822 54.6872 109.294 54.6872C112.385 54.6872 114.827 57.2676 114.827 61.7846C114.827 64.0033 114.209 65.9111 113.562 66.8926L110.95 66.1074Z" fill="white"/>
<path d="M212.815 174.799C222.951 174.799 231.163 186.215 231.163 200.295C231.163 214.375 222.951 225.789 212.815 225.789C202.679 225.789 194.469 214.375 194.469 200.295C194.469 186.215 202.688 174.799 212.815 174.799Z" fill="#FF4349"/>
<path d="M203.758 194.072H205.965L222.002 201.791V205.432L206.667 197.744H206.612V206.332H203.742L203.758 194.072Z" fill="white"/>
<path d="M212.815 35.0009C222.948 35.0009 231.161 46.4145 231.161 60.4924C231.161 74.5703 222.948 85.9883 212.815 85.9883C202.682 85.9883 194.469 74.5747 194.469 60.4924C194.469 46.4101 202.688 35.0009 212.815 35.0009Z" fill="#FF4349"/>
<path d="M219.54 65.4033C219.587 64.7672 219.569 64.1278 219.485 63.4955C219.389 62.1501 218.9 60.8623 218.078 59.7925C217.124 58.6147 215.749 57.8075 214.034 57.4634L214.007 57.5208C215.045 58.4449 215.636 59.7373 215.636 61.4775C215.636 64.6755 213.332 67.0332 209.96 67.0332C206.479 67.0332 203.445 64.338 203.445 60.4387C203.445 56.2019 206.788 53.9279 211.225 53.9279C215.131 53.9279 217.91 55.2204 219.708 57.0995C221.196 58.6985 222.039 60.8864 222.209 63.3279C222.28 64.0173 222.299 64.7111 222.264 65.4033H219.54ZM206 60.6372C206 62.3487 207.545 63.6102 209.753 63.6102C211.634 63.5838 213.093 62.5075 213.093 60.6085C213.093 59.2058 212.448 58.1957 211.579 57.6619C211.271 57.5168 210.933 57.4494 210.594 57.4656C208.124 57.4392 205.989 58.3633 205.989 60.6085L206 60.6372Z" fill="white"/>
<path d="M266.565 35.0009C276.698 35.0009 284.911 46.4145 284.911 60.4924C284.911 74.5703 276.698 85.9883 266.565 85.9883C256.432 85.9883 248.219 74.5747 248.219 60.4924C248.219 46.4101 256.434 35.0009 266.565 35.0009Z" fill="#FF4349"/>
<path d="M260.625 69.2629V69.318L262.312 72.6572L259.698 73.2461L257.508 68.8129V65.9303H275.768V69.2695L260.625 69.2629Z" fill="white"/>
<path d="M275.764 58.9336H273.656L271.669 56.7744C267.679 52.4802 265.487 50.46 263.074 50.4335C261.447 50.4335 260.012 51.3025 260.012 53.6866C260.012 55.2856 260.829 56.6619 261.529 57.5882L259.085 58.5983C257.845 56.9911 257.183 55.0141 257.204 52.9853C257.204 48.9448 259.76 46.9818 262.736 46.9818C265.94 46.9818 268.523 49.2822 271.472 52.4516L272.85 54.0528H272.905V46.554H275.775L275.764 58.9336Z" fill="white"/>
<path d="M320.317 104.901C330.451 104.901 338.663 116.313 338.663 130.395C338.663 144.477 330.451 155.889 320.317 155.889C310.184 155.889 301.969 144.475 301.969 130.395C301.969 116.315 310.182 104.901 320.317 104.901Z" fill="#FF4349"/>
<path d="M314.375 139.153V139.211L316.062 142.55L313.45 143.139L311.258 138.706V135.816H329.516V139.153H314.375Z" fill="white"/>
<path d="M329.51 121.233H324.874V129.484H322.626L311.25 122.047V117.98H322.26V115.623H324.874V117.98H329.51V121.233ZM322.262 121.233H317.293C316.253 121.233 315.186 121.205 314.118 121.121V121.233C315.27 121.794 316.198 122.272 317.209 122.832L322.209 126.172L322.264 126.2L322.262 121.233Z" fill="white"/>
<path d="M374.067 174.799C384.196 174.799 392.411 186.215 392.411 200.295C392.411 214.375 384.196 225.789 374.067 225.789C363.938 225.789 355.719 214.375 355.719 200.295C355.719 186.215 363.932 174.799 374.067 174.799Z" fill="#FF4349"/>
<path d="M368.118 209.07V209.125L369.812 212.464L367.198 213.053L365.008 208.617V205.728H383.266V209.07H368.118Z" fill="white"/>
<path d="M367.445 187.627C367.436 188.217 367.464 188.806 367.529 189.392C367.971 193.207 370.337 195.06 372.865 195.51V195.424C371.828 194.526 371.099 193.152 371.099 191.328C371.099 188.185 373.344 185.744 377.06 185.744C380.542 185.744 383.577 188.298 383.577 192.168C383.577 196.601 380.206 199.043 375.711 199.043C372.201 199.043 369.335 197.781 367.509 195.874C365.937 194.189 365.039 192.001 364.814 189.392C364.743 188.814 364.725 188.232 364.759 187.651L367.445 187.627ZM380.983 192.173C380.983 190.408 379.438 189.255 377.248 189.255C375.113 189.255 373.625 190.406 373.625 192.426C373.632 193.047 373.811 193.654 374.143 194.179C374.475 194.704 374.947 195.127 375.506 195.399C375.85 195.561 376.229 195.637 376.61 195.62C379.025 195.565 380.992 194.414 380.992 192.197L380.983 192.173Z" fill="white"/>
<path d="M374.063 35.0009C384.196 35.0009 392.411 46.4145 392.411 60.4924C392.411 74.5703 384.196 85.9883 374.063 85.9883C363.929 85.9883 355.719 74.5747 355.719 60.4924C355.719 46.4101 363.932 35.0009 374.063 35.0009Z" fill="#FF4349"/>
<path d="M368.118 69.2629V69.318L369.812 72.6572L367.198 73.2461L365.008 68.8129V65.9303H383.266V69.2695L368.118 69.2629Z" fill="white"/>
<path d="M373.74 55.7658C372.813 57.6736 371.296 58.5425 369.696 58.5425C366.718 58.5425 364.695 55.8959 364.695 52.4531C364.695 48.5272 367.055 46.7187 369.301 46.7187C370.846 46.7187 372.447 47.5326 373.431 49.5241H373.515C374.272 47.5392 375.847 46.046 378.121 46.046C381.379 46.046 383.572 48.7963 383.572 52.6957C383.572 56.9612 381.128 59.1777 378.571 59.1777C376.297 59.1777 374.752 57.8544 373.824 55.7548L373.74 55.7658ZM369.546 55.2607C371.036 55.2607 371.932 54.0256 372.416 52.2855C372.052 51.0504 371.043 50.0138 369.665 50.0138C368.4 50.0138 367.082 50.7703 367.082 52.6229C367.084 54.3631 368.234 55.2607 369.555 55.2607H369.546ZM378.392 49.5639C376.54 49.5639 375.522 50.9379 374.966 52.9582C375.471 54.6719 376.652 55.6533 378.169 55.6533C379.715 55.7084 381.119 54.5307 381.119 52.5942C381.128 50.7703 379.971 49.5639 378.401 49.5639H378.392Z" fill="white"/>
<path d="M427.815 35.0009C437.948 35.0009 446.163 46.4145 446.163 60.4924C446.163 74.5703 437.948 85.9883 427.815 85.9883C417.681 85.9883 409.469 74.5747 409.469 60.4924C409.469 46.4101 417.681 35.0009 427.815 35.0009Z" fill="#FF4349"/>
<path d="M437.012 74.6777H434.906L432.919 72.5185C428.929 68.2244 426.737 66.2041 424.324 66.1776C422.695 66.1776 421.262 67.0466 421.262 69.4308C421.262 71.0298 422.077 72.406 422.779 73.3324L420.335 74.3403C419.094 72.7343 418.432 70.7577 418.454 68.7294C418.454 64.6889 421.01 62.726 423.986 62.726C427.19 62.726 429.773 65.0264 432.722 68.1957L434.098 69.7969H434.155V62.2981H437.025L437.012 74.6777Z" fill="white"/>
<path d="M421.875 53.52V53.5795L423.562 56.9187L420.948 57.5098L418.758 53.0744V50.1852H437.014V53.5244L421.875 53.52Z" fill="white"/>
<path d="M481.565 104.901C491.696 104.901 499.911 116.313 499.911 130.395C499.911 144.477 491.696 155.889 481.565 155.889C471.434 155.889 463.219 144.475 463.219 130.395C463.219 116.315 471.434 104.901 481.565 104.901Z" fill="#FF4349"/>
<path d="M490.762 144.582H488.656L486.669 142.421C482.679 138.129 480.487 136.108 478.074 136.08C476.445 136.08 475.012 136.949 475.012 139.335C475.012 140.934 475.827 142.308 476.529 143.234L474.085 144.245C472.845 142.638 472.182 140.662 472.204 138.634C472.204 134.593 474.76 132.628 477.736 132.628C480.94 132.628 483.523 134.931 486.472 138.1L487.848 139.699H487.903V132.2H490.773L490.762 144.582Z" fill="white"/>
<path d="M487.195 128.127C487.899 126.853 488.285 125.429 488.318 123.974C488.318 121.327 486.83 120.271 485.398 120.297C483.236 120.297 482.307 122.32 482.307 124.422V126.023H479.779V124.479C479.779 122.88 479.048 120.86 477.222 120.86C475.986 120.86 474.948 121.784 474.948 123.778C474.988 125.102 475.385 126.392 476.099 127.509L473.599 128.295C472.869 127.258 472.195 125.235 472.195 123.048C472.195 119.298 474.273 117.353 476.662 117.353C478.571 117.353 480.143 118.473 480.931 120.719H480.987C481.379 118.513 483.064 116.707 485.537 116.707C488.627 116.707 491.069 119.287 491.069 123.806C491.069 126.012 490.451 127.931 489.806 128.912L487.195 128.127Z" fill="white"/>
<path d="M427.817 174.799C437.948 174.799 446.163 186.215 446.163 200.295C446.163 214.375 437.948 225.789 427.817 225.789C417.686 225.789 409.469 214.375 409.469 200.295C409.469 186.215 417.681 174.799 427.817 174.799Z" fill="#FF4349"/>
<path d="M421.875 209.069V209.124L423.562 212.466L420.948 213.055L418.758 208.619V205.73H437.014V209.069H421.875Z" fill="white"/>
<path d="M434.54 197.335C434.586 196.699 434.568 196.06 434.485 195.427C434.389 194.082 433.9 192.795 433.078 191.724C432.125 190.547 430.749 189.739 429.034 189.395L429.007 189.45C430.047 190.377 430.637 191.667 430.637 193.407C430.637 196.605 428.332 198.963 424.96 198.963C421.479 198.963 418.445 196.27 418.445 192.371C418.445 188.132 421.788 185.86 426.225 185.86C430.131 185.86 432.91 187.15 434.708 189.031C436.196 190.63 437.039 192.818 437.207 195.26C437.278 195.949 437.297 196.643 437.264 197.335H434.54ZM421.002 192.567C421.002 194.278 422.547 195.54 424.766 195.54C426.647 195.513 428.106 194.437 428.106 192.538C428.106 191.135 427.462 190.125 426.592 189.592C426.285 189.446 425.947 189.379 425.607 189.395C423.137 189.367 421.002 190.293 421.002 192.538V192.567Z" fill="white"/>
<path d="M535.319 174.799C545.448 174.799 553.666 186.215 553.666 200.295C553.666 214.375 545.448 225.789 535.319 225.789C525.19 225.789 516.969 214.375 516.969 200.295C516.969 186.215 525.184 174.799 535.319 174.799Z" fill="#FF4349"/>
<path d="M544.511 214.482H542.404L540.418 212.321C536.43 208.029 534.236 206.009 531.825 205.982C530.196 205.982 528.763 206.851 528.763 209.235C528.763 210.834 529.578 212.211 530.28 213.137L527.827 214.143C526.586 212.537 525.924 210.56 525.946 208.532C525.946 204.491 528.5 202.528 531.478 202.528C534.68 202.528 537.263 204.829 540.214 207.998L541.59 209.599H541.645V202.101H544.515L544.511 214.482Z" fill="white"/>
<path d="M529.119 187.15V194.166L532.771 194.697C532.711 194.259 532.683 193.816 532.687 193.374C532.687 191.773 533.051 190.174 533.866 188.941C534.738 187.564 536.281 186.554 538.502 186.554C541.986 186.554 544.823 189.444 544.823 193.934C544.823 196.038 544.288 197.805 543.754 198.76L541.142 198.058C541.76 196.81 542.087 195.439 542.098 194.047C542.098 192.026 540.946 190.09 538.756 190.09C536.676 190.09 535.301 191.634 535.301 195.279C535.291 196.115 535.347 196.951 535.468 197.778L526.258 196.572V187.143L529.119 187.15Z" fill="white"/>
<path d="M535.315 35.0009C545.448 35.0009 553.663 46.4145 553.663 60.4924C553.663 74.5703 545.448 85.9883 535.315 85.9883C525.182 85.9883 516.969 74.5747 516.969 60.4924C516.969 46.4101 525.184 35.0009 535.315 35.0009Z" fill="#FF4349"/>
<path d="M544.506 74.6777H542.398L540.411 72.5185C536.422 68.2244 534.229 66.2041 531.816 66.1776C530.187 66.1776 528.754 67.0466 528.754 69.4308C528.754 71.0298 529.569 72.406 530.271 73.3324L527.827 74.3403C526.586 72.7343 525.924 70.7577 525.946 68.7294C525.946 64.6889 528.502 62.726 531.478 62.726C534.682 62.726 537.265 65.0264 540.214 68.1957L541.59 69.7969H541.647V62.2981H544.517L544.506 74.6777Z" fill="white"/>
<path d="M526.254 46.394H528.473L544.512 54.1134V57.7613L529.175 50.0728H529.12V58.6523H526.25L526.254 46.394Z" fill="white"/>
<path d="M589.059 35.0009C599.191 35.0009 607.406 46.4145 607.406 60.4924C607.406 74.5703 599.191 85.9883 589.059 85.9883C578.928 85.9883 570.711 74.5747 570.711 60.4924C570.711 46.4101 578.928 35.0009 589.059 35.0009Z" fill="#FF4349"/>
<path d="M594.695 73.9765C595.397 72.7025 595.782 71.2779 595.816 69.8235C595.816 67.1769 594.328 66.1205 592.895 66.1491C590.732 66.1491 589.804 68.1694 589.804 70.2735V71.8725H587.279V70.3286C587.279 68.7296 586.548 66.7094 584.722 66.7094C583.488 66.7094 582.448 67.6357 582.448 69.6273C582.487 70.9525 582.885 72.2424 583.601 73.359L581.099 74.1464C580.369 73.1076 579.695 71.0873 579.695 68.8994C579.695 65.15 581.775 63.2026 584.162 63.2026C586.071 63.2026 587.645 64.3252 588.431 66.5682H588.486C588.882 64.3627 590.566 62.5563 593.037 62.5563C596.127 62.5563 598.569 65.139 598.569 69.6559C598.569 71.8615 597.951 73.7803 597.306 74.7617L594.695 73.9765Z" fill="white"/>
<path d="M589.021 46.0558C594.891 46.0558 598.569 48.3562 598.569 52.7055C598.569 56.9136 594.75 59.1588 589.189 59.1875C583.515 59.1875 579.695 56.7746 579.695 52.5092C579.695 48.1025 583.627 46.0558 589.021 46.0558ZM589.189 55.7072C593.626 55.7358 595.929 54.5008 595.929 52.593C595.929 50.5727 593.458 49.5052 589.085 49.5052C584.846 49.5052 582.345 50.5154 582.345 52.593C582.336 54.4456 584.612 55.7358 589.189 55.7072Z" fill="white"/>
<path d="M642.817 104.901C652.948 104.901 661.163 116.313 661.163 130.395C661.163 144.477 652.948 155.889 642.817 155.889C632.686 155.889 624.469 144.475 624.469 130.395C624.469 116.315 632.684 104.901 642.817 104.901Z" fill="#FF4349"/>
<path d="M648.445 143.881C649.149 142.607 649.535 141.182 649.568 139.728C649.568 137.081 648.08 136.023 646.647 136.051C644.484 136.051 643.557 138.071 643.557 140.176V141.777H641.029V140.233C641.029 138.634 640.3 136.614 638.474 136.614C637.238 136.614 636.198 137.538 636.198 139.532C636.238 140.857 636.637 142.146 637.351 143.263L634.852 144.048C634.121 143.012 633.445 140.989 633.445 138.802C633.445 135.041 635.525 133.105 637.912 133.105C639.821 133.105 641.395 134.227 642.181 136.472H642.236C642.632 134.267 644.316 132.461 646.789 132.461C649.88 132.461 652.321 135.041 652.321 139.56C652.321 141.766 651.703 143.685 651.056 144.666L648.445 143.881Z" fill="white"/>
<path d="M652.012 128.838H649.906L647.919 126.676C643.932 122.385 641.737 120.364 639.324 120.336C637.697 120.336 636.264 121.205 636.264 123.591C636.264 125.19 637.079 126.564 637.781 127.49L635.337 128.5C634.095 126.895 633.432 124.918 633.454 122.89C633.454 118.849 636.01 116.884 638.988 116.884C642.19 116.884 644.773 119.186 647.724 122.356L649.1 123.955H649.155V116.456H652.025L652.012 128.838Z" fill="white"/>
<path d="M696.559 174.799C706.691 174.799 714.903 186.215 714.903 200.295C714.903 214.375 706.691 225.789 696.559 225.789C686.428 225.789 678.211 214.375 678.211 200.295C678.211 186.215 686.43 174.799 696.559 174.799Z" fill="#FF4349"/>
<path d="M702.195 213.781C702.897 212.507 703.282 211.082 703.316 209.628C703.316 206.981 701.828 205.925 700.398 205.954C698.234 205.954 697.307 207.974 697.307 210.078V211.677H694.779V210.133C694.779 208.534 694.048 206.514 692.222 206.514C690.988 206.514 689.948 207.44 689.948 209.432C689.987 210.757 690.385 212.047 691.101 213.163L688.599 213.951C687.869 212.912 687.195 210.892 687.195 208.704C687.195 204.943 689.273 203.007 691.662 203.007C693.571 203.007 695.145 204.13 695.931 206.373H695.986C696.379 204.167 698.064 202.361 700.537 202.361C703.628 202.361 706.069 204.943 706.069 209.46C706.069 211.677 705.451 213.585 704.806 214.568L702.195 213.781Z" fill="white"/>
<path d="M705.759 191.136H701.123V199.385H698.878L687.508 191.948V187.881H698.518V185.523H701.13V187.881H705.766L705.759 191.136ZM698.513 191.136H693.542C692.504 191.136 691.435 191.107 690.369 191.024V191.136C691.519 191.696 692.447 192.173 693.46 192.735L698.46 196.074L698.516 196.101L698.513 191.136Z" fill="white"/>
<path d="M696.559 35.0009C706.691 35.0009 714.903 46.4145 714.903 60.4924C714.903 74.5703 706.691 85.9883 696.559 85.9883C686.428 85.9883 678.211 74.5747 678.211 60.4924C678.211 46.4101 686.43 35.0009 696.559 35.0009Z" fill="#FF4349"/>
<path d="M702.195 73.9765C702.897 72.7025 703.282 71.2779 703.316 69.8235C703.316 67.1769 701.828 66.1205 700.398 66.1491C698.234 66.1491 697.307 68.1694 697.307 70.2735V71.8725H694.779V70.3286C694.779 68.7296 694.048 66.7094 692.222 66.7094C690.988 66.7094 689.948 67.6357 689.948 69.6273C689.987 70.9525 690.385 72.2424 691.101 73.359L688.599 74.1464C687.869 73.1076 687.195 71.0873 687.195 68.8994C687.195 65.15 689.273 63.2026 691.662 63.2026C693.571 63.2026 695.145 64.3252 695.931 66.5682H695.986C696.379 64.3627 698.064 62.5563 700.537 62.5563C703.628 62.5563 706.069 65.139 706.069 69.6559C706.069 71.8615 705.451 73.7803 704.806 74.7617L702.195 73.9765Z" fill="white"/>
<path d="M689.945 47.8224C689.936 48.4118 689.964 49.0011 690.029 49.5869C690.471 53.4024 692.837 55.2551 695.365 55.7028V55.619C694.325 54.7213 693.599 53.3451 693.599 51.5233C693.599 48.3804 695.847 45.9389 699.56 45.9389C703.041 45.9389 706.075 48.4929 706.075 52.3636C706.075 56.7967 702.704 59.2383 698.211 59.2383C694.701 59.2383 691.835 57.9767 690.009 56.0689C688.437 54.3839 687.539 52.196 687.314 49.5869C687.243 49.0096 687.225 48.4272 687.258 47.8467L689.945 47.8224ZM703.483 52.368C703.483 50.6036 701.938 49.4501 699.748 49.4501C697.613 49.4501 696.125 50.6014 696.125 52.6217C696.132 53.2427 696.311 53.8496 696.643 54.3746C696.975 54.8996 697.447 55.3221 698.006 55.5947C698.35 55.7566 698.729 55.8323 699.11 55.8153C701.525 55.7602 703.492 54.6089 703.492 52.3923L703.483 52.368Z" fill="white"/>
<path d="M55.4532 178.632C59.7781 178.632 62.5003 180.339 62.5003 183.541C62.5003 186.642 59.6854 188.297 55.5878 188.316C51.4086 188.316 48.5938 186.552 48.5938 183.398C48.5915 180.152 51.4793 178.632 55.4532 178.632ZM55.5768 185.743C58.8465 185.765 60.5442 184.86 60.5442 183.449C60.5442 181.96 58.7228 181.175 55.4951 181.175C52.369 181.175 50.5277 181.918 50.5277 183.449C50.5277 184.825 52.2034 185.776 55.5768 185.754V185.743Z" fill="white"/>
<path d="M55.4342 163.415C47.4598 163.477 41.3047 172.238 41.3047 182.824C41.3047 193.411 47.4598 202.164 55.4342 202.213C63.4041 202.164 69.5637 193.391 69.5637 182.824C69.5637 172.257 63.4019 163.477 55.4342 163.415ZM55.4342 200.993C51.9415 200.993 48.7359 199.028 46.3692 195.744C44.0025 192.46 42.5211 187.886 42.5211 182.824C42.5211 177.762 44.0047 173.175 46.367 169.898C48.7293 166.62 51.9393 164.648 55.432 164.648C58.9246 164.648 62.1258 166.613 64.4947 169.898C66.8636 173.182 68.3406 177.751 68.3384 182.824C68.3362 187.897 66.857 192.471 64.4947 195.748C62.1324 199.026 58.9246 200.993 55.4342 200.993Z" fill="white"/>
<path d="M55.4486 66.3497C59.7735 66.3497 62.4846 68.0458 62.4846 71.2504C62.4846 74.3514 59.6698 76.0055 55.5722 76.0254C51.393 76.0254 48.5781 74.2477 48.5781 71.1048C48.587 67.8583 51.4747 66.3497 55.4486 66.3497ZM55.5722 73.4626C58.8419 73.4824 60.5396 72.5803 60.5396 71.1666C60.5396 69.6779 58.7182 68.8927 55.4905 68.8927C52.3644 68.8927 50.5231 69.636 50.5231 71.1666C50.5231 72.5318 52.1988 73.4824 55.5722 73.4626Z" fill="white"/>
<path d="M55.4486 77.8402C59.7735 77.8402 62.4846 79.5341 62.4846 82.7387C62.4846 85.8397 59.6698 87.4938 55.5722 87.5137C51.393 87.5137 48.5781 85.736 48.5781 82.5954C48.587 79.3466 51.4747 77.8402 55.4486 77.8402ZM55.5722 84.9509C58.8419 84.9707 60.5396 84.0686 60.5396 82.6571C60.5396 81.1684 58.7182 80.3832 55.4905 80.3832C52.3644 80.3832 50.5231 81.1265 50.5231 82.6571C50.5231 84.0157 52.1988 84.9685 55.5722 84.9486V84.9509Z" fill="white"/>
<path d="M55.4342 58.1379C47.4621 58.1865 41.3047 66.96 41.3047 77.5289C41.3047 88.0978 47.4598 96.8692 55.4342 96.9199C63.4041 96.8692 69.5637 88.0978 69.5637 77.5289C69.5637 66.96 63.4019 58.1887 55.4342 58.1379ZM55.4342 95.7047C51.9415 95.7047 48.7359 93.7395 46.3692 90.4555C44.0025 87.1715 42.5234 82.5994 42.5234 77.5311C42.5234 72.4628 44.007 67.8842 46.3692 64.6045C48.7315 61.3249 51.9415 59.3554 55.4342 59.3554C58.9268 59.3554 62.128 61.3205 64.4969 64.6045C66.8658 67.8886 68.3428 72.4628 68.3406 77.5311C68.3384 82.5994 66.8592 87.1781 64.4969 90.4555C62.1346 93.7329 58.9246 95.7047 55.4342 95.7047Z" fill="white"/>
<path d="M758.524 214.506V223.31H756.67L753.471 220.15C752.51 219.212 751.844 218.6 751.473 218.315C751.16 218.062 750.813 217.853 750.444 217.693C750.131 217.568 749.797 217.505 749.459 217.505C749.252 217.489 749.044 217.517 748.849 217.589C748.654 217.661 748.478 217.775 748.331 217.922C748.072 218.235 747.94 218.633 747.96 219.038C747.961 219.531 748.076 220.017 748.296 220.459C748.557 220.975 748.877 221.458 749.252 221.899L747.536 223.346C747.111 222.871 746.735 222.353 746.415 221.802C746.191 221.38 746.022 220.93 745.912 220.465C745.788 219.935 745.728 219.391 745.735 218.846C745.724 218.127 745.875 217.415 746.177 216.762C746.438 216.189 746.856 215.702 747.384 215.357C747.915 215.02 748.533 214.846 749.161 214.857C749.721 214.853 750.275 214.958 750.795 215.163C751.361 215.401 751.888 215.721 752.36 216.112C753.174 216.811 753.937 217.567 754.645 218.372L756.171 219.991H756.292V214.504L758.524 214.506Z" fill="white"/>
<path d="M756.612 203.926C756.593 203.363 756.491 202.805 756.309 202.272H758.268C758.581 203.037 758.732 203.858 758.709 204.685C758.709 205.736 758.444 206.501 757.912 206.981C757.381 207.46 756.579 207.7 755.508 207.7H750.858V208.959H749.755L748.871 207.51L746.836 206.753V205.073H748.889V202.376H750.863V205.073H755.508C755.661 205.085 755.814 205.063 755.958 205.009C756.101 204.954 756.23 204.868 756.336 204.757C756.526 204.523 756.624 204.227 756.612 203.926V203.926Z" fill="white"/>
<path d="M753.687 191.573C755.256 191.573 756.483 191.986 757.369 192.812C758.255 193.638 758.697 194.79 758.694 196.268C758.712 197.123 758.501 197.967 758.085 198.714C757.68 199.42 757.071 199.987 756.338 200.342C755.512 200.736 754.605 200.931 753.689 200.911C752.114 200.911 750.89 200.5 750.016 199.678C749.141 198.856 748.704 197.702 748.704 196.215C748.687 195.361 748.896 194.517 749.309 193.769C749.708 193.064 750.313 192.496 751.042 192.142C751.867 191.747 752.773 191.552 753.687 191.573ZM753.687 198.231C754.643 198.231 755.363 198.074 755.853 197.761C756.343 197.448 756.586 196.939 756.586 196.233C756.586 195.527 756.343 195.029 755.857 194.72C755.371 194.411 754.647 194.259 753.687 194.259C752.727 194.259 752.018 194.415 751.541 194.724C751.064 195.033 750.824 195.542 750.824 196.25C750.824 196.958 751.062 197.457 751.537 197.766C752.011 198.074 752.727 198.231 753.687 198.231Z" fill="white"/>
<path d="M758.522 178.908V181.57H751.226L750.027 181.544L748.716 181.5C749.157 181.941 749.449 182.25 749.588 182.422L750.751 183.871L749.148 185.154L745.914 181.096V178.908H758.522Z" fill="white"/>
<path d="M758.524 145.033V153.838H756.67L753.471 150.677C752.51 149.739 751.844 149.127 751.473 148.84C751.159 148.587 750.812 148.379 750.442 148.22C750.13 148.095 749.796 148.03 749.459 148.031C749.252 148.014 749.043 148.043 748.848 148.115C748.653 148.188 748.476 148.302 748.329 148.45C748.071 148.763 747.938 149.161 747.958 149.566C747.959 150.059 748.075 150.545 748.296 150.986C748.556 151.502 748.877 151.985 749.252 152.424L747.536 153.873C747.112 153.397 746.736 152.88 746.415 152.329C746.191 151.907 746.022 151.458 745.912 150.993C745.788 150.462 745.728 149.919 745.735 149.374C745.724 148.654 745.875 147.941 746.176 147.287C746.437 146.715 746.856 146.228 747.384 145.885C747.914 145.547 748.533 145.373 749.161 145.384C749.721 145.38 750.275 145.484 750.795 145.691C751.36 145.928 751.888 146.246 752.36 146.637C753.174 147.337 753.937 148.093 754.645 148.9L756.171 150.518H756.292V145.031L758.524 145.033Z" fill="white"/>
<path d="M756.606 134.454C756.588 133.89 756.486 133.333 756.304 132.799H758.262C758.576 133.564 758.726 134.386 758.704 135.212C758.704 136.262 758.437 137.027 757.905 137.508C757.372 137.989 756.571 138.229 755.503 138.227H750.866V139.484H749.762L748.879 138.038L746.844 137.279V135.6H748.879V132.903H750.866V135.6H755.503C755.655 135.613 755.809 135.592 755.952 135.537C756.096 135.482 756.225 135.396 756.33 135.285C756.521 135.051 756.619 134.755 756.606 134.454V134.454Z" fill="white"/>
<path d="M753.687 122.098C755.256 122.098 756.483 122.512 757.369 123.339C758.255 124.167 758.697 125.318 758.694 126.793C758.711 127.649 758.501 128.494 758.085 129.241C757.68 129.947 757.071 130.515 756.338 130.869C755.512 131.263 754.605 131.458 753.689 131.438C752.114 131.438 750.89 131.027 750.015 130.205C749.141 129.383 748.704 128.229 748.704 126.742C748.687 125.888 748.896 125.045 749.309 124.297C749.709 123.591 750.313 123.023 751.042 122.667C751.867 122.272 752.773 122.077 753.687 122.098ZM753.687 128.758C754.643 128.758 755.363 128.602 755.853 128.289C756.343 127.975 756.586 127.466 756.586 126.76C756.586 126.054 756.343 125.556 755.857 125.247C755.371 124.938 754.647 124.786 753.687 124.786C752.727 124.786 752.018 124.943 751.541 125.252C751.064 125.56 750.823 126.07 750.823 126.778C750.823 127.486 751.062 127.982 751.537 128.293C752.011 128.604 752.727 128.758 753.687 128.758V128.758Z" fill="white"/>
<path d="M758.522 109.434V112.096H751.226L750.027 112.071L748.716 112.027C749.157 112.468 749.449 112.777 749.588 112.949L750.751 114.396L749.148 115.68L745.914 111.622V109.434H758.522Z" fill="white"/>
<path d="M758.524 74.8204V83.6249H756.67L753.471 80.4644C752.51 79.5263 751.844 78.9146 751.473 78.6293C751.159 78.3762 750.812 78.167 750.442 78.0074C750.129 77.8826 749.796 77.8189 749.459 77.8199C749.252 77.8035 749.044 77.8323 748.848 77.9043C748.653 77.9763 748.476 78.0897 748.329 78.2368C748.071 78.5497 747.938 78.9476 747.958 79.3528C747.959 79.8459 748.075 80.3321 748.296 80.7731C748.557 81.2893 748.877 81.7727 749.252 82.2133L747.536 83.6602C747.111 83.185 746.735 82.6677 746.415 82.1163C746.191 81.694 746.022 81.2448 745.912 80.7797C745.788 80.2492 745.728 79.7056 745.735 79.1609C745.724 78.4418 745.875 77.7295 746.177 77.0767C746.437 76.5031 746.856 76.0157 747.384 75.6717C747.915 75.3342 748.533 75.1601 749.161 75.1711C749.721 75.1679 750.275 75.272 750.795 75.4777C751.361 75.7155 751.888 76.035 752.36 76.426C753.174 77.1257 753.937 77.8811 754.645 78.6867L756.171 80.3056H756.292V74.8182L758.524 74.8204Z" fill="white"/>
<path d="M756.613 64.2404C756.594 63.6771 756.492 63.1197 756.311 62.5862H758.269C758.583 63.351 758.733 64.1729 758.71 64.9991C758.71 66.0504 758.444 66.8157 757.911 67.295C757.378 67.7744 756.581 68.0141 755.518 68.0141H750.882V69.2734H749.778L748.895 67.8244L746.859 67.0679V65.3873H748.886V62.6899H750.873V65.3873H755.509C755.662 65.4001 755.816 65.3784 755.959 65.3238C756.103 65.2692 756.232 65.1831 756.337 65.0719C756.528 64.8377 756.626 64.5419 756.613 64.2404Z" fill="white"/>
<path d="M753.687 51.887C755.256 51.887 756.483 52.3001 757.369 53.1265C758.255 53.9528 758.697 55.1048 758.694 56.5825C758.712 57.4374 758.501 58.2815 758.085 59.0285C757.68 59.7344 757.071 60.3018 756.338 60.6561C755.512 61.0502 754.605 61.2451 753.689 61.2252C752.114 61.2252 750.89 60.8142 750.016 59.9923C749.141 59.1703 748.704 58.0161 748.704 56.5296C748.687 55.6754 748.896 54.8318 749.309 54.0837C749.708 53.3783 750.313 52.8107 751.042 52.456C751.867 52.061 752.773 51.866 753.687 51.887ZM753.687 58.5455C754.643 58.5455 755.363 58.3889 755.853 58.0757C756.343 57.7625 756.586 57.253 756.586 56.5472C756.586 55.8415 756.343 55.343 755.857 55.0343C755.371 54.7255 754.647 54.5733 753.687 54.5733C752.727 54.5733 752.018 54.7299 751.541 55.0387C751.064 55.3474 750.824 55.8569 750.824 56.5649C750.824 57.2729 751.062 57.7713 751.537 58.0801C752.011 58.3889 752.727 58.5455 753.687 58.5455Z" fill="white"/>
<path d="M758.522 39.2242V41.8906H751.226L750.027 41.8642L748.716 41.8201C749.157 42.2612 749.449 42.5699 749.588 42.742L750.751 44.191L749.148 45.4746L745.914 41.4164V39.2286L758.522 39.2242Z" fill="white"/>
<path d="M347.194 315.982L385.995 340.101L347.194 364.219L308.391 340.101L347.194 315.982Z" fill="#FF4349"/>
<path d="M346.779 364.883L307.976 340.766C307.864 340.695 307.771 340.598 307.707 340.482C307.643 340.366 307.61 340.236 307.609 340.104C307.61 339.972 307.643 339.842 307.707 339.726C307.771 339.61 307.864 339.513 307.976 339.442V339.442L346.779 315.323C346.903 315.245 347.047 315.205 347.193 315.205C347.339 315.205 347.483 315.245 347.607 315.323V315.323L386.408 339.438C386.52 339.508 386.613 339.606 386.677 339.721C386.742 339.837 386.776 339.967 386.776 340.1V340.1C386.776 340.232 386.742 340.362 386.677 340.478C386.613 340.593 386.52 340.691 386.408 340.761V340.761L347.607 364.883C347.482 364.959 347.338 365 347.192 365V365C347.046 365 346.903 364.959 346.779 364.883V364.883ZM309.872 340.102L347.183 363.297L384.494 340.102L347.183 316.902L309.872 340.102V340.102Z" fill="white"/>
<path d="M454.694 315.982L493.495 340.101L454.694 364.219L415.891 340.101L454.694 315.982Z" fill="#1D1D1D"/>
<path d="M454.273 364.883L415.472 340.766C415.36 340.696 415.267 340.598 415.202 340.483C415.137 340.367 415.102 340.237 415.102 340.104C415.102 339.971 415.137 339.841 415.202 339.725C415.267 339.61 415.36 339.512 415.472 339.442V339.442L454.273 315.323C454.398 315.246 454.541 315.205 454.687 315.205C454.834 315.205 454.977 315.246 455.101 315.323V315.323L493.902 339.438C494.014 339.509 494.107 339.606 494.171 339.722C494.235 339.837 494.27 339.967 494.271 340.1V340.1C494.27 340.232 494.235 340.362 494.171 340.477C494.107 340.593 494.014 340.691 493.902 340.761V340.761L455.101 364.883C454.976 364.959 454.833 365 454.686 365V365C454.54 365 454.398 364.959 454.273 364.883V364.883ZM417.364 340.102L454.675 363.297L491.986 340.102L454.675 316.902L417.364 340.102V340.102Z" fill="white"/>
<path d="M219.276 350.971H208.383V332.076H219.276V335.36H212.403V339.509H218.806V342.79H212.403V347.662H219.287L219.276 350.971Z" fill="white"/>
<path d="M234.011 332.076H238.06L231.631 350.971H227.259L220.844 332.076H224.893L228.449 343.324C228.648 343.987 228.853 344.761 229.063 345.644C229.284 346.527 229.408 347.142 229.458 347.486C229.553 346.692 229.876 345.305 230.428 343.324L234.011 332.076Z" fill="white"/>
<path d="M251.334 350.971H240.445V332.076H251.336V335.36H244.452V339.509H250.855V342.79H244.452V347.662H251.334V350.971Z" fill="white"/>
<path d="M272.052 350.971H266.955L258.729 336.677H258.612C258.775 339.201 258.857 341.002 258.857 342.08V350.971H255.273V332.076H260.331L268.546 346.227H268.637C268.507 343.773 268.443 342.037 268.443 341.019V332.076H272.052V350.971Z" fill="white"/>
<path d="M551.748 341.498C551.748 344.625 550.972 347.028 549.419 348.708C547.867 350.387 545.642 351.227 542.745 351.229C539.849 351.229 537.624 350.388 536.071 348.708C534.519 347.027 533.742 344.615 533.742 341.471C533.742 338.326 534.521 335.925 536.078 334.268C537.635 332.611 539.866 331.782 542.772 331.78C545.677 331.78 547.9 332.615 549.439 334.286C550.979 335.956 551.748 338.36 551.748 341.498ZM537.946 341.498C537.946 343.609 538.347 345.199 539.149 346.266C539.951 347.334 541.15 347.868 542.745 347.869C545.945 347.869 547.545 345.746 547.545 341.498C547.545 337.25 545.954 335.122 542.772 335.113C541.175 335.113 539.972 335.649 539.162 336.723C538.353 337.796 537.947 339.388 537.946 341.498Z" fill="white"/>
<path d="M571.361 341.344C571.361 344.453 570.478 346.835 568.712 348.489C566.946 350.144 564.386 350.971 561.033 350.971H555.68V332.076H561.616C564.707 332.076 567.105 332.891 568.809 334.52C570.513 336.149 571.364 338.423 571.361 341.344ZM567.189 341.445C567.189 337.39 565.395 335.361 561.808 335.36H559.682V347.662H561.402C565.26 347.662 567.189 345.59 567.189 341.445Z" fill="white"/>
<path d="M590.973 341.344C590.973 344.453 590.09 346.835 588.323 348.489C586.557 350.144 583.998 350.971 580.645 350.971H575.289V332.076H581.228C584.319 332.076 586.716 332.891 588.421 334.52C590.125 336.149 590.976 338.423 590.973 341.344ZM586.807 341.445C586.807 337.39 585.013 335.361 581.427 335.36H579.292V347.662H581.012C584.875 347.662 586.807 345.59 586.807 341.445V341.445Z" fill="white"/>
<path d="M638.91 351.234H634.914V340.297L634.951 338.5L635.015 336.537C634.353 337.198 633.891 337.64 633.631 337.84L631.459 339.585L629.531 337.183L635.625 332.331H638.91V351.234Z" fill="white"/>
<path d="M657.298 340.407C657.298 344.128 656.513 346.906 654.944 348.741C653.376 350.576 650.999 351.494 647.816 351.494C646.963 351.515 646.109 351.455 645.268 351.313V348.108C646.015 348.292 646.782 348.383 647.551 348.38C648.889 348.38 649.988 348.183 650.849 347.791C651.7 347.415 652.4 346.764 652.836 345.943C653.292 345.104 653.555 343.948 653.624 342.473H653.47C653.062 343.192 652.462 343.784 651.737 344.18C650.966 344.531 650.125 344.698 649.279 344.67C647.631 344.67 646.333 344.142 645.385 343.086C644.437 342.031 643.962 340.56 643.961 338.675C643.961 336.651 644.537 335.051 645.69 333.876C646.842 332.701 648.409 332.113 650.39 332.112C651.682 332.083 652.955 332.423 654.059 333.093C655.132 333.779 655.972 334.772 656.47 335.943C657.022 337.195 657.298 338.683 657.298 340.407ZM650.454 335.334C650.086 335.316 649.72 335.384 649.383 335.532C649.046 335.68 648.748 335.904 648.513 336.187C648.048 336.754 647.813 337.575 647.813 338.642C647.813 339.555 648.025 340.279 648.447 340.812C648.87 341.346 649.512 341.614 650.374 341.615C651.146 341.63 651.893 341.344 652.459 340.819C652.726 340.594 652.942 340.315 653.091 339.999C653.24 339.684 653.32 339.34 653.324 338.991C653.353 338.059 653.069 337.144 652.516 336.393C652.285 336.061 651.977 335.791 651.618 335.606C651.259 335.42 650.86 335.324 650.456 335.327L650.454 335.334Z" fill="white"/>
<path d="M665.883 345.754V342.525H672.828V345.754H665.883Z" fill="white"/>
<path d="M694.05 336.567C694.079 337.669 693.695 338.743 692.975 339.579C692.259 340.406 691.255 340.974 689.961 341.284V341.361C691.489 341.551 692.644 342.014 693.427 342.751C694.21 343.488 694.603 344.481 694.606 345.731C694.606 347.548 693.944 348.962 692.619 349.974C691.295 350.986 689.411 351.492 686.968 351.494C685.097 351.529 683.239 351.181 681.508 350.473V347.074C682.283 347.46 683.097 347.763 683.936 347.978C684.788 348.207 685.666 348.325 686.548 348.327C687.873 348.327 688.848 348.106 689.473 347.665C690.099 347.224 690.413 346.504 690.416 345.506C690.416 344.623 690.054 343.995 689.33 343.62C688.606 343.245 687.45 343.06 685.864 343.064H684.42V340.001H685.881C687.353 340.001 688.425 339.809 689.098 339.425C689.771 339.041 690.108 338.385 690.111 337.455C690.111 336.025 689.215 335.31 687.422 335.31C686.778 335.313 686.138 335.418 685.526 335.62C684.769 335.884 684.05 336.244 683.387 336.692L681.536 333.94C683.261 332.7 685.318 332.08 687.707 332.078C689.663 332.078 691.209 332.475 692.343 333.267C692.886 333.626 693.327 334.118 693.626 334.695C693.924 335.273 694.07 335.917 694.05 336.567V336.567Z" fill="white"/>
<path d="M696.562 343.21C696.562 339.472 697.354 336.689 698.938 334.862C700.522 333.034 702.891 332.121 706.045 332.123C706.895 332.103 707.744 332.168 708.581 332.317V335.508C707.834 335.338 707.071 335.252 706.305 335.25C704.932 335.25 703.813 335.457 702.947 335.87C702.114 336.251 701.429 336.896 701 337.705C700.57 338.515 700.316 339.665 700.238 341.154H700.406C701.258 339.684 702.625 338.949 704.506 338.949C706.197 338.949 707.522 339.479 708.48 340.539C709.438 341.599 709.914 343.063 709.908 344.93C709.908 346.946 709.339 348.542 708.202 349.718C707.064 350.895 705.485 351.483 703.466 351.483C702.181 351.512 700.914 351.176 699.812 350.514C698.743 349.834 697.904 348.847 697.406 347.683C696.844 346.45 696.562 344.959 696.562 343.21ZM703.393 348.302C704.247 348.302 704.903 348.016 705.36 347.442C705.818 346.869 706.046 346.053 706.045 344.994C706.045 344.072 705.831 343.346 705.404 342.815C704.978 342.284 704.333 342.019 703.47 342.021C702.703 342.005 701.959 342.287 701.395 342.808C701.128 343.034 700.912 343.315 700.764 343.632C700.615 343.948 700.537 344.294 700.534 344.643C700.504 345.575 700.789 346.49 701.342 347.241C701.572 347.571 701.878 347.839 702.234 348.024C702.591 348.209 702.987 348.304 703.389 348.302H703.393Z" fill="white"/>
<path d="M109.16 351.5H105.161V340.567L105.201 338.77L105.265 336.807C104.603 337.468 104.139 337.91 103.881 338.11L101.709 339.857L99.7812 337.455L105.875 332.603H109.16V351.5Z" fill="white"/>
<path d="M121 346.02V342.788H127.954V346.02H121Z" fill="white"/>
<path d="M146.574 351.5H142.578V340.567L142.615 338.77L142.679 336.807C142.017 337.468 141.556 337.91 141.297 338.11L139.123 339.857L137.195 337.455L143.289 332.603H146.574V351.5Z" fill="white"/>
<path d="M158.327 332.359C160.139 332.359 161.599 332.771 162.707 333.594C163.237 333.968 163.666 334.468 163.956 335.048C164.246 335.629 164.388 336.272 164.369 336.92C164.383 337.843 164.101 338.746 163.566 339.498C163.031 340.253 162.17 340.927 160.981 341.521C162.393 342.279 163.408 343.07 164.025 343.892C164.626 344.667 164.952 345.62 164.95 346.6C164.971 347.326 164.816 348.045 164.499 348.698C164.181 349.351 163.71 349.918 163.126 350.349C161.909 351.295 160.309 351.768 158.327 351.768C156.256 351.768 154.632 351.326 153.454 350.444C152.277 349.562 151.688 348.312 151.688 346.695C151.672 345.674 151.972 344.672 152.547 343.828C153.121 342.991 154.042 342.256 155.309 341.622C154.231 340.943 153.456 340.215 152.982 339.439C152.51 338.674 152.263 337.792 152.269 336.893C152.257 336.25 152.404 335.614 152.698 335.041C152.991 334.468 153.422 333.976 153.951 333.609C155.067 332.776 156.525 332.359 158.327 332.359ZM155.377 346.474C155.362 346.804 155.424 347.133 155.559 347.434C155.694 347.735 155.898 348 156.154 348.208C156.671 348.621 157.378 348.828 158.276 348.828C159.268 348.828 160.01 348.614 160.501 348.188C160.743 347.98 160.934 347.72 161.062 347.428C161.19 347.136 161.25 346.819 161.239 346.501C161.232 346.196 161.165 345.896 161.041 345.617C160.918 345.339 160.74 345.087 160.519 344.878C160.03 344.372 159.239 343.835 158.144 343.267C156.299 344.113 155.377 345.182 155.377 346.474ZM158.311 335.281C157.717 335.253 157.132 335.438 156.662 335.804C156.457 335.974 156.293 336.189 156.184 336.432C156.075 336.675 156.023 336.94 156.033 337.207C156.03 337.714 156.207 338.206 156.532 338.596C156.863 339.006 157.464 339.426 158.336 339.856C159.18 339.461 159.769 339.057 160.102 338.642C160.434 338.238 160.613 337.73 160.607 337.207C160.618 336.938 160.565 336.67 160.453 336.426C160.34 336.181 160.172 335.967 159.961 335.8C159.487 335.441 158.905 335.258 158.311 335.281V335.281Z" fill="white"/>
<path d="M161.656 280.582H157.656V269.649L157.693 267.854L157.76 265.889C157.096 266.552 156.634 266.987 156.375 267.194L154.201 268.939L152.273 266.535L158.367 261.683H161.652L161.656 280.582Z" fill="white"/>
<path d="M172.919 269.267C172.919 270.131 172.618 270.789 172.018 271.241C171.417 271.692 170.518 271.921 169.32 271.927C168.795 271.935 168.27 271.893 167.753 271.803C167.336 271.725 166.929 271.602 166.538 271.437V269.538C167.002 269.753 167.486 269.922 167.982 270.043C168.444 270.17 168.919 270.238 169.397 270.248C170.232 270.248 170.649 270.006 170.649 269.525C170.653 269.444 170.64 269.363 170.611 269.288C170.583 269.212 170.539 269.143 170.484 269.084C170.312 268.929 170.118 268.8 169.91 268.7C169.637 268.553 169.275 268.385 168.823 268.197C168.319 268.005 167.839 267.752 167.395 267.445C167.112 267.238 166.884 266.965 166.733 266.649C166.584 266.301 166.513 265.924 166.525 265.546C166.511 265.207 166.584 264.869 166.736 264.565C166.889 264.262 167.116 264.002 167.397 263.81C167.979 263.4 168.801 263.195 169.865 263.195C170.89 263.196 171.903 263.422 172.83 263.857L172.137 265.513C171.75 265.346 171.354 265.199 170.952 265.072C170.588 264.956 170.209 264.897 169.828 264.898C169.151 264.898 168.812 265.082 168.81 265.449C168.816 265.556 168.848 265.66 168.904 265.751C168.96 265.842 169.038 265.918 169.13 265.972C169.589 266.235 170.07 266.456 170.568 266.633C171.078 266.823 171.564 267.073 172.014 267.379C172.301 267.587 172.534 267.861 172.694 268.177C172.851 268.519 172.928 268.891 172.919 269.267V269.267Z" fill="white"/>
<path d="M178.266 270.087C178.759 270.071 179.247 269.983 179.714 269.825V271.534C179.045 271.808 178.325 271.939 177.601 271.918C176.683 271.918 176.013 271.685 175.592 271.221C175.172 270.756 174.962 270.059 174.963 269.13V265.07H173.859V264.099L175.127 263.329L175.789 261.552H177.261V263.345H179.622V265.07H177.264V269.13C177.252 269.263 177.271 269.398 177.318 269.523C177.366 269.648 177.441 269.761 177.537 269.853C177.744 270.017 178.003 270.1 178.266 270.087V270.087Z" fill="white"/>
<path d="M199.183 280.582H195.185V269.649L195.225 267.854L195.289 265.889C194.625 266.552 194.163 266.987 193.904 267.194L191.732 268.939L189.805 266.535L195.898 261.683H199.183V280.582Z" fill="white"/>
<path d="M217.638 280.582H204.418V277.803L209.165 273.008C210.57 271.57 211.489 270.573 211.92 270.018C212.3 269.548 212.614 269.029 212.851 268.474C213.04 268.005 213.137 267.505 213.136 267C213.136 266.242 212.927 265.677 212.509 265.307C212.04 264.918 211.442 264.719 210.834 264.751C210.093 264.752 209.362 264.925 208.699 265.256C207.925 265.647 207.2 266.128 206.54 266.689L204.367 264.118C205.08 263.484 205.856 262.923 206.681 262.444C207.315 262.109 207.99 261.856 208.688 261.689C209.484 261.505 210.299 261.416 211.116 261.425C212.195 261.402 213.265 261.623 214.247 262.071C215.107 262.462 215.839 263.089 216.355 263.88C216.862 264.674 217.123 265.6 217.106 266.542C217.112 267.38 216.956 268.211 216.647 268.99C216.289 269.837 215.809 270.628 215.223 271.336C214.579 272.136 213.448 273.277 211.827 274.759L209.399 277.049V277.221H217.638V280.582Z" fill="white"/>
<path d="M379.992 280.582H366.772V277.803L371.518 273.008C372.924 271.57 373.842 270.573 374.274 270.018C374.653 269.548 374.967 269.028 375.205 268.474C375.394 268.005 375.491 267.505 375.49 267C375.49 266.242 375.281 265.677 374.863 265.307C374.394 264.918 373.796 264.719 373.187 264.751C372.446 264.752 371.716 264.925 371.053 265.256C370.279 265.647 369.554 266.128 368.893 266.689L366.719 264.118C367.433 263.482 368.209 262.919 369.035 262.437C369.668 262.102 370.342 261.849 371.039 261.683C371.835 261.499 372.651 261.41 373.468 261.418C374.547 261.396 375.617 261.617 376.598 262.064C377.458 262.456 378.19 263.083 378.707 263.873C379.212 264.668 379.473 265.593 379.457 266.535C379.463 267.373 379.307 268.204 378.998 268.983C378.64 269.83 378.161 270.621 377.574 271.33C376.931 272.13 375.799 273.271 374.179 274.753L371.75 277.042V277.221H379.989L379.992 280.582Z" fill="white"/>
<path d="M389.819 271.768H387.518V266.854C387.518 266.247 387.41 265.791 387.194 265.487C387.073 265.331 386.915 265.208 386.735 265.128C386.555 265.049 386.357 265.016 386.161 265.032C385.516 265.032 385.057 265.253 384.765 265.676C384.474 266.1 384.324 266.817 384.324 267.811V271.781H382.023V263.358H383.79L384.099 264.435H384.227C384.482 264.03 384.851 263.71 385.286 263.513C385.772 263.295 386.3 263.189 386.832 263.2C387.812 263.2 388.556 263.465 389.064 263.996C389.572 264.527 389.826 265.291 389.826 266.289L389.819 271.768Z" fill="white"/>
<path d="M394.863 271.926C394.409 271.942 393.958 271.846 393.55 271.645C393.142 271.444 392.791 271.145 392.527 270.775C391.962 270.004 391.68 268.939 391.68 267.579C391.68 266.219 391.967 265.143 392.543 264.352C392.813 263.978 393.172 263.677 393.587 263.475C394.003 263.273 394.461 263.177 394.923 263.194C395.4 263.172 395.875 263.274 396.301 263.491C396.726 263.707 397.088 264.031 397.351 264.429H397.426C397.319 263.876 397.261 263.314 397.254 262.751V260.054H399.561V271.767H397.795L397.354 270.675H397.256C396.732 271.509 395.935 271.926 394.863 271.926ZM395.669 270.095C396.258 270.095 396.689 269.925 396.963 269.584C397.237 269.243 397.384 268.662 397.404 267.844V267.594C397.404 266.69 397.265 266.042 396.987 265.651C396.707 265.259 396.254 265.062 395.625 265.062C395.385 265.056 395.148 265.115 394.938 265.231C394.728 265.347 394.553 265.517 394.431 265.724C394.146 266.165 394.004 266.797 394.004 267.619C394.004 268.448 394.148 269.068 394.433 269.482C394.57 269.68 394.755 269.84 394.972 269.946C395.188 270.052 395.428 270.1 395.669 270.087V270.095Z" fill="white"/>
<path d="M419.729 280.582H415.74V269.649L415.779 267.854L415.843 265.889C415.178 266.552 414.717 266.987 414.459 267.194L412.287 268.939L410.359 266.535L416.45 261.683H419.738L419.729 280.582Z" fill="white"/>
<path d="M438.187 280.582H424.967V277.803L429.714 273.008C431.121 271.57 432.039 270.573 432.469 270.018C432.849 269.548 433.162 269.028 433.401 268.474C433.589 268.005 433.686 267.505 433.685 267C433.685 266.242 433.476 265.677 433.058 265.307C432.589 264.918 431.991 264.719 431.383 264.751C430.642 264.752 429.911 264.925 429.248 265.256C428.474 265.647 427.749 266.128 427.089 266.689L424.914 264.118C425.628 263.482 426.404 262.919 427.23 262.437C427.864 262.102 428.537 261.849 429.235 261.683C430.031 261.499 430.846 261.41 431.663 261.418C432.742 261.396 433.812 261.617 434.794 262.064C435.654 262.456 436.385 263.083 436.902 263.873C437.408 264.668 437.669 265.593 437.653 266.535C437.658 267.373 437.502 268.204 437.194 268.983C436.836 269.83 436.356 270.621 435.77 271.33C435.126 272.13 433.995 273.271 432.374 274.753L429.946 277.042V277.221H438.185L438.187 280.582Z" fill="white"/>
<path d="M594.245 265.915C594.273 267.016 593.891 268.089 593.172 268.925C592.455 269.751 591.45 270.32 590.157 270.63V270.707C591.684 270.897 592.84 271.36 593.625 272.097C594.409 272.833 594.802 273.827 594.802 275.076C594.802 276.894 594.139 278.309 592.815 279.322C591.49 280.335 589.606 280.841 587.163 280.839C585.292 280.875 583.434 280.527 581.703 279.818V276.419C582.478 276.806 583.292 277.109 584.132 277.324C584.983 277.554 585.861 277.672 586.743 277.674C588.068 277.674 589.043 277.45 589.669 277.002C590.294 276.553 590.608 275.834 590.611 274.843C590.611 273.96 590.249 273.332 589.525 272.957C588.801 272.582 587.646 272.397 586.059 272.401H584.624V269.338H586.085C587.557 269.338 588.629 269.146 589.3 268.764C589.971 268.382 590.31 267.725 590.315 266.792C590.315 265.363 589.418 264.648 587.624 264.646C586.98 264.65 586.341 264.755 585.73 264.957C584.973 265.221 584.253 265.581 583.589 266.029L581.738 263.277C583.463 262.037 585.52 261.418 587.909 261.418C589.867 261.418 591.412 261.814 592.545 262.606C593.088 262.967 593.529 263.46 593.827 264.039C594.124 264.618 594.268 265.264 594.245 265.915V265.915Z" fill="white"/>
<path d="M601.738 263.186C601.999 263.181 602.259 263.204 602.515 263.254L602.341 265.409C602.119 265.355 601.891 265.329 601.663 265.334C600.927 265.334 600.355 265.522 599.948 265.899C599.737 266.103 599.574 266.349 599.467 266.622C599.361 266.895 599.315 267.188 599.332 267.48V271.768H597.031V263.345H598.773L599.113 264.761H599.226C599.479 264.299 599.843 263.907 600.285 263.62C600.716 263.336 601.222 263.184 601.738 263.186V263.186Z" fill="white"/>
<path d="M606.713 271.926C606.259 271.942 605.808 271.846 605.4 271.645C604.993 271.444 604.642 271.145 604.379 270.775C603.814 270.004 603.531 268.939 603.531 267.579C603.531 266.219 603.819 265.143 604.395 264.352C604.665 263.978 605.024 263.677 605.439 263.475C605.854 263.273 606.313 263.177 606.774 263.194C607.252 263.172 607.726 263.274 608.152 263.491C608.578 263.707 608.94 264.031 609.203 264.429H609.278C609.17 263.876 609.111 263.314 609.104 262.751V260.054H611.413V271.767H609.647L609.205 270.675H609.106C608.58 271.502 607.786 271.926 606.713 271.926ZM607.521 270.095C608.108 270.095 608.541 269.926 608.814 269.584C609.088 269.242 609.238 268.662 609.256 267.844V267.594C609.256 266.69 609.117 266.042 608.839 265.651C608.558 265.259 608.106 265.062 607.476 265.062C607.236 265.056 606.999 265.115 606.789 265.231C606.579 265.347 606.404 265.518 606.282 265.724C605.998 266.165 605.855 266.797 605.854 267.619C605.854 268.448 605.997 269.068 606.284 269.482C606.421 269.68 606.607 269.84 606.823 269.946C607.04 270.052 607.28 270.1 607.521 270.087V270.095Z" fill="white"/>
<path d="M631.582 280.582H627.586V269.649L627.623 267.854L627.689 265.889C627.024 266.552 626.563 266.987 626.305 267.194L624.13 268.939L622.203 266.535L628.296 261.683H631.582V280.582Z" fill="white"/>
<path d="M650.046 280.582H636.826V277.803L641.573 273.008C642.979 271.57 643.897 270.573 644.328 270.018C644.708 269.548 645.022 269.028 645.26 268.474C645.449 268.005 645.545 267.505 645.545 267C645.545 266.242 645.336 265.677 644.918 265.307C644.449 264.918 643.851 264.719 643.242 264.751C642.501 264.752 641.77 264.925 641.107 265.256C640.333 265.647 639.607 266.128 638.946 266.689L636.773 264.118C637.487 263.482 638.263 262.919 639.089 262.437C639.723 262.102 640.397 261.849 641.094 261.683C641.89 261.499 642.705 261.41 643.522 261.418C644.601 261.396 645.671 261.617 646.653 262.064C647.513 262.456 648.244 263.083 648.761 263.873C649.267 264.668 649.528 265.593 649.512 266.535C649.517 267.373 649.362 268.204 649.053 268.983C648.695 269.83 648.215 270.621 647.629 271.33C646.987 272.13 645.855 273.271 644.233 274.753L641.805 277.042V277.221H650.046V280.582Z" fill="white"/>
</g>
</g>
<defs>
<linearGradient id="paint0_linear_3441_11461" x1="630.223" y1="317.656" x2="-193.774" y2="-105.487" gradientUnits="userSpaceOnUse">
<stop stop-color="#4529D9"/>
<stop offset="1" stop-color="#634EDE"/>
</linearGradient>
<clipPath id="clip0_3441_11461">
<rect width="400" height="800" fill="white" transform="translate(0 400) rotate(-90)"/>
</clipPath>
<clipPath id="clip1_3441_11461">
<rect width="330" height="717.391" fill="white" transform="translate(41.3047 365) rotate(-90)"/>
</clipPath>
</defs>
</svg>
